<?xml version="1.0" encoding="iso-8859-1"?>
<!-- Uploaded to: SVG Repo, www.svgrepo.com, Generator: SVG Repo Mixer Tools -->
<svg height="800px" width="800px" version="1.1" id="Layer_1" xmlns="http://www.w3.org/2000/svg" xmlns:xlink="http://www.w3.org/1999/xlink" 
	 viewBox="0 0 512 512" xml:space="preserve">
<g transform="translate(1 1)">
	<path style="fill:#FDCC00;" d="M450.254,7.678c28.637,0,52.068,23.431,52.068,52.068v390.508c0-28.637-23.431-52.068-52.068-52.068
		c-28.637,0-52.068,23.431-52.068,52.068V59.746C398.186,31.108,421.617,7.678,450.254,7.678"/>
	<path style="fill:#FFE100;" d="M398.186,68.424v381.831c0-28.637,23.431-52.068,52.068-52.068
		c28.637,0,52.068,23.431,52.068,52.068v0.868c0,28.637-23.431,51.2-51.2,51.2H7.678V68.424H398.186z"/>
	<g>
		<path style="fill:#FFA800;" d="M450.254,7.678c-4.339,0-8.678,0.868-13.017,1.736c22.563,6.075,39.051,26.034,39.051,50.332
			v345.383c15.62,8.678,26.034,26.034,26.034,45.125V59.746C502.322,31.108,478.892,7.678,450.254,7.678"/>
		<path style="fill:#FFA800;" d="M450.254,398.186c-4.339,0-8.678,0.868-13.017,1.736c22.563,6.075,39.051,26.034,39.051,50.332
			v0.868c0,28.637-23.431,51.2-51.2,51.2h26.034c28.637,0,51.2-23.431,51.2-51.2v-0.868
			C502.322,421.617,478.892,398.186,450.254,398.186"/>
	</g>
	<path style="fill:#00DA6C;" d="M7.678,432.898c57.275,0,104.136-46.861,104.136-104.136H7.678V432.898z"/>
	<polygon style="fill:#FFFFFF;" points="7.678,502.322 33.712,502.322 33.712,68.424 7.678,68.424 	"/>
	<path d="M502.322,458.932c-5.207,0-8.678-3.471-8.678-8.678c0-24.298-19.092-43.39-43.39-43.39s-43.39,19.092-43.39,43.39
		c0,5.207-3.471,8.678-8.678,8.678c-5.207,0-8.678-3.471-8.678-8.678V59.746C389.508,25.902,416.41-1,450.254-1
		S511,25.902,511,59.746v390.508C511,455.461,507.529,458.932,502.322,458.932z M450.254,389.508
		c17.356,0,32.108,6.942,43.39,18.224V59.746c0-24.298-19.092-43.39-43.39-43.39s-43.39,19.092-43.39,43.39v347.986
		C418.146,396.451,432.898,389.508,450.254,389.508z"/>
	<path d="M451.122,511H7.678C2.471,511-1,507.529-1,502.322V68.424c0-5.207,3.471-8.678,8.678-8.678h390.508
		c5.207,0,8.678,3.471,8.678,8.678v339.308c11.281-11.281,26.034-18.224,43.39-18.224c33.844,0,60.746,26.902,60.746,60.746
		S484.098,511,451.122,511z M16.356,493.644h434.766c23.431,0,42.522-19.092,42.522-42.522c0-24.298-19.092-44.258-43.39-44.258
		s-43.39,19.092-43.39,43.39c0,5.207-3.471,8.678-8.678,8.678c-5.207,0-8.678-3.471-8.678-8.678V77.102H16.356V493.644z"/>
	<path d="M129.169,285.373H7.678c-5.207,0-8.678-3.471-8.678-8.678V68.424c0-5.207,3.471-8.678,8.678-8.678h121.492
		c5.207,0,8.678,3.471,8.678,8.678v69.424c0,5.207-3.471,8.678-8.678,8.678s-8.678-3.471-8.678-8.678V77.102H16.356v190.915h104.136
		v-60.746c0-5.207,3.471-8.678,8.678-8.678s8.678,3.471,8.678,8.678v69.424C137.847,281.902,134.376,285.373,129.169,285.373z"/>
	<path d="M146.525,146.525h-34.712c-5.207,0-8.678-3.471-8.678-8.678s3.471-8.678,8.678-8.678h34.712
		c5.207,0,8.678,3.471,8.678,8.678S151.732,146.525,146.525,146.525z"/>
	<path d="M146.525,215.949h-34.712c-5.207,0-8.678-3.471-8.678-8.678c0-5.207,3.471-8.678,8.678-8.678h34.712
		c5.207,0,8.678,3.471,8.678,8.678C155.203,212.478,151.732,215.949,146.525,215.949z"/>
	<path d="M233.305,198.593c-5.207,0-8.678-3.471-8.678-8.678v-34.712c0-5.207,3.471-8.678,8.678-8.678s8.678,3.471,8.678,8.678
		v34.712C241.983,195.122,238.512,198.593,233.305,198.593z"/>
	<path d="M302.729,198.593c-5.207,0-8.678-3.471-8.678-8.678v-34.712c0-5.207,3.471-8.678,8.678-8.678
		c5.207,0,8.678,3.471,8.678,8.678v34.712C311.407,195.122,307.936,198.593,302.729,198.593z"/>
	<path d="M346.119,511H137.847c-5.207,0-8.678-3.471-8.678-8.678V398.186c0-5.207,3.471-8.678,8.678-8.678h69.424
		c5.207,0,8.678,3.471,8.678,8.678c0,5.207-3.471,8.678-8.678,8.678h-60.746v86.78h190.915v-86.78h-60.746
		c-5.207,0-8.678-3.471-8.678-8.678c0-5.207,3.471-8.678,8.678-8.678h69.424c5.207,0,8.678,3.471,8.678,8.678v104.136
		C354.797,507.529,351.325,511,346.119,511z"/>
	<path d="M207.271,424.22c-5.207,0-8.678-3.471-8.678-8.678v-34.712c0-5.207,3.471-8.678,8.678-8.678
		c5.207,0,8.678,3.471,8.678,8.678v34.712C215.949,420.749,212.478,424.22,207.271,424.22z"/>
	<path d="M276.695,424.22c-5.207,0-8.678-3.471-8.678-8.678v-34.712c0-5.207,3.471-8.678,8.678-8.678s8.678,3.471,8.678,8.678
		v34.712C285.373,420.749,281.902,424.22,276.695,424.22z"/>
	<path d="M354.797,181.237h-52.068c-5.207,0-8.678-3.471-8.678-8.678c0-5.207,3.471-8.678,8.678-8.678h43.39v-86.78H198.593v86.78
		h34.712c5.207,0,8.678,3.471,8.678,8.678c0,5.207-3.471,8.678-8.678,8.678h-43.39c-5.207,0-8.678-3.471-8.678-8.678V68.424
		c0-5.207,3.471-8.678,8.678-8.678h164.881c5.207,0,8.678,3.471,8.678,8.678v104.136
		C363.475,177.766,360.003,181.237,354.797,181.237z"/>
	<path d="M7.678,441.576c-5.207,0-8.678-3.471-8.678-8.678V328.763c0-5.207,3.471-8.678,8.678-8.678h104.136
		c5.207,0,8.678,3.471,8.678,8.678C120.492,391.244,70.159,441.576,7.678,441.576z M16.356,337.441v86.78
		c45.993-4.339,82.441-40.786,86.78-86.78H16.356z"/>
</g>
</svg>